<?xml version="1.0" encoding="UTF-8"?>
<svg id="a" xmlns="http://www.w3.org/2000/svg" viewBox="0 0 394.91 255.2">
  <path d="m278.67,50.14c-18.72.73-28.07,1.09-35.94,4.14-3.83,1.48-9.2,4.17-14.96,9.39h5.52c2.31.03,5.6.27,9.81,1.2,11.66.87,21.91,5.48,30.51,13.06,20.28,17.86,27.94,41.79,31.3,67.89-20.24-19.8-40.98-38.64-67.89-51,2.55,19.45,11.44,38.56-2.75,58.29-7.11-25.33-15.54-47.9-30.31-68.64-9.66,16.35-16.4,32.99-21.61,50.31-10.14,33.66-14.03,68.25-14.87,103.24-.13,5.59-2.17,9.71-6.31,13.07-8.26,6.7-16.57,5.13-21.79-4.24-5.69-10.21-6.24-21.63-6.36-32.8-.53-51.19,16.41-95.88,51.56-133.29,4.46-4.75,3.54-6.54-1.48-9.17-8.36-4.37-17.29-6.03-26.52-6.49-22.68-1.14-44.86,2.45-66.85,7.49-2.45.56-4.8,1.32-7.77.23,5.39-8.76,13.45-13.79,22.5-17.3,21.39-8.32,43.83-9.32,66.43-9.03,2.33.03,5.57,1.96,6.76-.87,1.02-2.44-1.82-4.46-3.54-6.22-14.58-14.94-32.32-25.61-49.89-37.02,1.04-1.53,2.77-1.92,4.69-2.06,32.01-2.36,58.29,8.11,76.89,34.96,2.79,4.03,4.69,4.41,9.19,2.8,24.89-8.9,48.29-6.28,69.47,10.39.78.85,1.29,1.4,1.29,1.4l-7.07.27h-.01Z" style="fill: currentColor;"/>
  <path d="m33.15,150.88c13.34,7.72,25.78,14.93,38.23,22.11,6.25,3.61,9.92,15.82,6.47,21.93-2.23,3.97-5.01,1.95-7.58.45-14.44-8.47-28.86-16.99-43.28-25.49-7.51-4.42-15.09-8.73-22.5-13.31-5.95-3.68-5.98-7.11-.09-10.74,21.88-13.46,43.82-26.85,65.79-40.17,5.67-3.44,7.58-2.14,8.36,4.26,1.17,9.63-1.36,16.2-10.97,20.79-11.69,5.58-22.48,13.05-34.44,20.17h.01Z" style="fill: currentColor;"/>
  <path d="m361.79,150.88c-13.29-7.9-25.67-15.26-38.04-22.62-6.67-3.97-10.21-14.88-6.85-21.85,2.45-5.07,5.78-2.04,8.55-.37,14.92,9.02,29.76,18.18,44.63,27.29,6.85,4.2,13.74,8.32,20.53,12.61,5.58,3.53,5.81,6.97.24,10.31-22.43,13.45-44.97,26.69-67.52,39.94-4.4,2.59-6.35.27-6.93-4.02-1.73-12.72-.81-14.54,10.21-20.89,11.32-6.53,22.61-13.1,35.19-20.39h0Z" style="fill: currentColor;"/>
</svg>