<?xml version="1.0" encoding="utf-8"?>
<!-- Generator: Adobe Illustrator 25.4.1, SVG Export Plug-In . SVG Version: 6.00 Build 0)  -->
<svg version="1.1" id="Layer_1" xmlns="http://www.w3.org/2000/svg" xmlns:xlink="http://www.w3.org/1999/xlink" x="0px" y="0px"
	 viewBox="0 0 40 40" style="enable-background:new 0 0 40 40;" xml:space="preserve">
<style type="text/css">
	.st0{fill:#020201;}
	.st1{fill:#FFCC00;}
	.st2{fill:#010100;}
</style>
<path class="st0" d="M14.2,37.1c-4.2,0-8.4,0-12.6,0c-0.8,0-1.4-0.5-1.6-1.3c-0.1-0.4,0-0.7,0.2-1.1c1.2-2,2.3-4,3.5-6
	c5-8.6,10-17.2,14.9-25.9c0.6-1,1.8-1.1,2.5-0.3c0.1,0.1,0.2,0.3,0.3,0.4c4.8,8.3,9.6,16.6,14.4,24.9c1.3,2.3,2.7,4.6,4,6.9
	c0.5,0.9,0.1,2-0.9,2.2c-0.2,0-0.4,0.1-0.6,0.1C30.3,37.1,22.3,37.1,14.2,37.1 M10.9,19.4c-3.1,5.4-6.2,10.8-9.3,16.2
	c12.3,0,24.7,0,37,0C32.3,24.9,26.2,14.3,20,3.6C17,8.9,13.9,14.1,10.9,19.4z"/>
<path class="st1" d="M10.9,19.4c3-5.3,6.1-10.5,9.1-15.8c6.2,10.7,12.3,21.4,18.5,32c-12.3,0-24.6,0-37,0
	C4.6,30.2,7.8,24.8,10.9,19.4 M18.7,26.2c0,0,0.1,0.1,0.1,0.1c0.5,0.5,1.1,0.6,1.8,0.4c0.6-0.2,1-0.7,1.1-1.4
	c0.1-0.5,0.1-1.1,0.1-1.6c0.1-1.6,0.3-3.2,0.4-4.8c0.1-1.4,0.2-2.7,0.3-4.1c0-0.4,0.1-0.8,0-1.2c-0.2-1.4-1.5-2.3-3-2.1
	c-1.3,0.2-2.3,1.5-2.2,2.9c0.1,0.7,0.1,1.4,0.2,2.1c0.1,1.3,0.2,2.6,0.3,3.9c0.1,1.5,0.3,3,0.4,4.5C18.4,25.3,18.4,25.8,18.7,26.2
	 M19.3,29.1c-1.3,0.4-2,1.5-1.9,2.8c0.1,1.2,1.1,2.2,2.4,2.3c1.1,0.1,2-0.4,2.5-1.4c0.5-1,0.4-1.9-0.2-2.8
	C21.4,29.2,20.5,28.9,19.3,29.1z"/>
<path class="st2" d="M18.7,26.2c-0.3-0.4-0.4-0.9-0.4-1.4c-0.1-1.5-0.3-3-0.4-4.5c-0.1-1.3-0.2-2.6-0.3-3.9
	c-0.1-0.7-0.1-1.4-0.2-2.1c-0.1-1.4,0.8-2.7,2.2-2.9c1.5-0.2,2.8,0.7,3,2.1c0.1,0.4,0,0.8,0,1.2c-0.1,1.4-0.2,2.7-0.3,4.1
	c-0.1,1.6-0.3,3.2-0.4,4.8c0,0.5-0.1,1.1-0.1,1.6c-0.1,0.7-0.4,1.2-1.1,1.4c-0.7,0.3-1.3,0.1-1.8-0.4C18.8,26.3,18.8,26.3,18.7,26.2
	z"/>
<path class="st2" d="M19.4,29.1c1.1-0.2,2,0,2.7,0.9c0.7,0.9,0.7,1.9,0.2,2.8c-0.5,1-1.4,1.4-2.5,1.4c-1.2-0.1-2.3-1.1-2.4-2.3
	C17.3,30.6,18.1,29.5,19.4,29.1z"/>
</svg>
