<svg width="20" height="20" viewBox="0 0 20 20" fill="none" xmlns="http://www.w3.org/2000/svg">
<path d="M8.34 19.115V12.23H1.41C0.96 12.23 0.555 11.825 0.555 11.375V9.485C0.555 9.035 0.96 8.63 1.41 8.63H8.34V1.655C8.34 1.205 8.745 0.844999 9.195 0.844999H11.085C11.535 0.844999 11.94 1.205 11.94 1.655V8.63H18.87C19.32 8.63 19.68 9.035 19.68 9.485V11.375C19.68 11.825 19.32 12.23 18.87 12.23H11.94V19.115C11.94 19.565 11.535 19.925 11.085 19.925H9.195C8.745 19.925 8.34 19.565 8.34 19.115Z" fill="#002642"/>
</svg>
